<svg xmlns="http://www.w3.org/2000/svg" width="980" height="560" viewBox="0 0 980 560">
  <rect width="100%" height="100%" fill="white"/>
  <text x="490.0" y="34" text-anchor="middle" font-family="Arial, sans-serif" font-size="22" font-weight="bold">C0 — Model: Mean response time</text>
  <text x="490.0" y="58" text-anchor="middle" font-family="Arial, sans-serif" font-size="13">Unit: ms</text>
  <g font-family="Arial, sans-serif" fill="#222">
<line x1="86" y1="434" x2="948" y2="434" stroke="#222"/>
<line x1="86" y1="74" x2="86" y2="434" stroke="#222"/>
<line x1="81" y1="434.00" x2="948" y2="434.00" stroke="#ddd"/>
<text x="76" y="438.00" text-anchor="end" font-size="12">0.00</text>
<line x1="81" y1="362.00" x2="948" y2="362.00" stroke="#ddd"/>
<text x="76" y="366.00" text-anchor="end" font-size="12">1400.00</text>
<line x1="81" y1="290.00" x2="948" y2="290.00" stroke="#ddd"/>
<text x="76" y="294.00" text-anchor="end" font-size="12">2800.00</text>
<line x1="81" y1="218.00" x2="948" y2="218.00" stroke="#ddd"/>
<text x="76" y="222.00" text-anchor="end" font-size="12">4200.00</text>
<line x1="81" y1="146.00" x2="948" y2="146.00" stroke="#ddd"/>
<text x="76" y="150.00" text-anchor="end" font-size="12">5600.00</text>
<line x1="81" y1="74.00" x2="948" y2="74.00" stroke="#ddd"/>
<text x="76" y="78.00" text-anchor="end" font-size="12">7000.00</text>
<rect x="156.75" y="346.30" width="74.00" height="87.70" fill="#666"/>
<text x="193.75" y="339.30" text-anchor="middle" font-size="12">1705.28</text>
<text x="193.75" y="452.00" text-anchor="end" font-size="12" transform="rotate(-35 193.75,452.00)">M1 (llama-3.2-1b-instruct:q4_k_m)</text>
<rect x="372.25" y="353.24" width="74.00" height="80.76" fill="#666"/>
<text x="409.25" y="346.24" text-anchor="middle" font-size="12">1570.39</text>
<text x="409.25" y="452.00" text-anchor="end" font-size="12" transform="rotate(-35 409.25,452.00)">M2 (llama-3.2-1b-instruct:q8_0)</text>
<rect x="587.75" y="144.65" width="74.00" height="289.35" fill="#666"/>
<text x="624.75" y="137.65" text-anchor="middle" font-size="12">5626.16</text>
<text x="624.75" y="452.00" text-anchor="end" font-size="12" transform="rotate(-35 624.75,452.00)">M3 (llama-3.2-3b-instruct:q4_k_m)</text>
<rect x="803.25" y="183.42" width="74.00" height="250.58" fill="#666"/>
<text x="840.25" y="176.42" text-anchor="middle" font-size="12">4872.38</text>
<text x="840.25" y="452.00" text-anchor="end" font-size="12" transform="rotate(-35 840.25,452.00)">M4 (llama-3.2-3b-instruct:q8_0)</text>
  </g>
</svg>
