<svg xmlns="http://www.w3.org/2000/svg" width="980" height="560" viewBox="0 0 980 560">
  <rect width="100%" height="100%" fill="white"/>
  <text x="490.0" y="34" text-anchor="middle" font-family="Arial, sans-serif" font-size="22" font-weight="bold">Workload sweep - Throughput</text>
  <text x="490.0" y="58" text-anchor="middle" font-family="Arial, sans-serif" font-size="13">Unit: requests/s</text>
  <g font-family="Arial, sans-serif" fill="#222">
<line x1="86" y1="434" x2="948" y2="434" stroke="#222"/>
<line x1="86" y1="74" x2="86" y2="434" stroke="#222"/>
<line x1="81" y1="434.00" x2="948" y2="434.00" stroke="#ddd"/>
<text x="76" y="438.00" text-anchor="end" font-size="12">0.00</text>
<line x1="81" y1="362.00" x2="948" y2="362.00" stroke="#ddd"/>
<text x="76" y="366.00" text-anchor="end" font-size="12">0.18</text>
<line x1="81" y1="290.00" x2="948" y2="290.00" stroke="#ddd"/>
<text x="76" y="294.00" text-anchor="end" font-size="12">0.36</text>
<line x1="81" y1="218.00" x2="948" y2="218.00" stroke="#ddd"/>
<text x="76" y="222.00" text-anchor="end" font-size="12">0.54</text>
<line x1="81" y1="146.00" x2="948" y2="146.00" stroke="#ddd"/>
<text x="76" y="150.00" text-anchor="end" font-size="12">0.72</text>
<line x1="81" y1="74.00" x2="948" y2="74.00" stroke="#ddd"/>
<text x="76" y="78.00" text-anchor="end" font-size="12">0.90</text>
<rect x="192.67" y="317.28" width="74.00" height="116.72" fill="#666"/>
<text x="229.67" y="310.28" text-anchor="middle" font-size="12">0.29</text>
<text x="229.67" y="452.00" text-anchor="end" font-size="12" transform="rotate(-35 229.67,452.00)">WL1 (1 users, spawn 1)</text>
<rect x="480.00" y="204.72" width="74.00" height="229.28" fill="#666"/>
<text x="517.00" y="197.72" text-anchor="middle" font-size="12">0.57</text>
<text x="517.00" y="452.00" text-anchor="end" font-size="12" transform="rotate(-35 517.00,452.00)">WL2 (2 users, spawn 1)</text>
<rect x="767.33" y="131.64" width="74.00" height="302.36" fill="#666"/>
<text x="804.33" y="124.64" text-anchor="middle" font-size="12">0.76</text>
<text x="804.33" y="452.00" text-anchor="end" font-size="12" transform="rotate(-35 804.33,452.00)">WL3 (4 users, spawn 2)</text>
  </g>
</svg>
