<svg xmlns="http://www.w3.org/2000/svg" width="980" height="560" viewBox="0 0 980 560">
  <rect width="100%" height="100%" fill="white"/>
  <text x="490.0" y="34" text-anchor="middle" font-family="Arial, sans-serif" font-size="22" font-weight="bold">C3 — Node-Count Variation: Maximum pod CPU snapshot</text>
  <text x="490.0" y="58" text-anchor="middle" font-family="Arial, sans-serif" font-size="13">Unit: mCPU</text>
  <g font-family="Arial, sans-serif" fill="#222">
<line x1="86" y1="434" x2="948" y2="434" stroke="#222"/>
<line x1="86" y1="74" x2="86" y2="434" stroke="#222"/>
<line x1="81" y1="434.00" x2="948" y2="434.00" stroke="#ddd"/>
<text x="76" y="438.00" text-anchor="end" font-size="12">0.00</text>
<line x1="81" y1="362.00" x2="948" y2="362.00" stroke="#ddd"/>
<text x="76" y="366.00" text-anchor="end" font-size="12">200.00</text>
<line x1="81" y1="290.00" x2="948" y2="290.00" stroke="#ddd"/>
<text x="76" y="294.00" text-anchor="end" font-size="12">400.00</text>
<line x1="81" y1="218.00" x2="948" y2="218.00" stroke="#ddd"/>
<text x="76" y="222.00" text-anchor="end" font-size="12">600.00</text>
<line x1="81" y1="146.00" x2="948" y2="146.00" stroke="#ddd"/>
<text x="76" y="150.00" text-anchor="end" font-size="12">800.00</text>
<line x1="81" y1="74.00" x2="948" y2="74.00" stroke="#ddd"/>
<text x="76" y="78.00" text-anchor="end" font-size="12">1000.00</text>
<rect x="192.67" y="138.92" width="74.00" height="295.08" fill="#666"/>
<text x="229.67" y="131.92" text-anchor="middle" font-size="12">819.67</text>
<text x="229.67" y="452.00" text-anchor="end" font-size="12" transform="rotate(-35 229.67,452.00)">NC_2N (2 provider worker nodes / W4)</text>
<rect x="480.00" y="123.80" width="74.00" height="310.20" fill="#666"/>
<text x="517.00" y="116.80" text-anchor="middle" font-size="12">861.67</text>
<text x="517.00" y="452.00" text-anchor="end" font-size="12" transform="rotate(-35 517.00,452.00)">NC_3N (3 provider worker nodes / W4)</text>
<rect x="767.33" y="137.36" width="74.00" height="296.64" fill="#666"/>
<text x="804.33" y="130.36" text-anchor="middle" font-size="12">824.00</text>
<text x="804.33" y="452.00" text-anchor="end" font-size="12" transform="rotate(-35 804.33,452.00)">NC_4N (4 provider worker nodes / W4)</text>
  </g>
</svg>
