<svg xmlns="http://www.w3.org/2000/svg" width="980" height="560" viewBox="0 0 980 560">
  <rect width="100%" height="100%" fill="white"/>
  <text x="490.0" y="34" text-anchor="middle" font-family="Arial, sans-serif" font-size="22" font-weight="bold">C5 — Latency Injection: Maximum node memory snapshot</text>
  <text x="490.0" y="58" text-anchor="middle" font-family="Arial, sans-serif" font-size="13">Unit: %</text>
  <g font-family="Arial, sans-serif" fill="#222">
<line x1="86" y1="434" x2="948" y2="434" stroke="#222"/>
<line x1="86" y1="74" x2="86" y2="434" stroke="#222"/>
<line x1="81" y1="434.00" x2="948" y2="434.00" stroke="#ddd"/>
<text x="76" y="438.00" text-anchor="end" font-size="12">0.00</text>
<line x1="81" y1="362.00" x2="948" y2="362.00" stroke="#ddd"/>
<text x="76" y="366.00" text-anchor="end" font-size="12">4.00</text>
<line x1="81" y1="290.00" x2="948" y2="290.00" stroke="#ddd"/>
<text x="76" y="294.00" text-anchor="end" font-size="12">8.00</text>
<line x1="81" y1="218.00" x2="948" y2="218.00" stroke="#ddd"/>
<text x="76" y="222.00" text-anchor="end" font-size="12">12.00</text>
<line x1="81" y1="146.00" x2="948" y2="146.00" stroke="#ddd"/>
<text x="76" y="150.00" text-anchor="end" font-size="12">16.00</text>
<line x1="81" y1="74.00" x2="948" y2="74.00" stroke="#ddd"/>
<text x="76" y="78.00" text-anchor="end" font-size="12">20.00</text>
<rect x="156.75" y="146.00" width="74.00" height="288.00" fill="#666"/>
<text x="193.75" y="139.00" text-anchor="middle" font-size="12">16.00</text>
<text x="193.75" y="452.00" text-anchor="end" font-size="12" transform="rotate(-35 193.75,452.00)">LI_L0_NONE (0 ms, jitter 0 ms)</text>
<rect x="372.25" y="146.00" width="74.00" height="288.00" fill="#666"/>
<text x="409.25" y="139.00" text-anchor="middle" font-size="12">16.00</text>
<text x="409.25" y="452.00" text-anchor="end" font-size="12" transform="rotate(-35 409.25,452.00)">LI_L1_EDGE_NEAR (50 ms, jitter 5 ms)</text>
<rect x="587.75" y="146.00" width="74.00" height="288.00" fill="#666"/>
<text x="624.75" y="139.00" text-anchor="middle" font-size="12">16.00</text>
<text x="624.75" y="452.00" text-anchor="end" font-size="12" transform="rotate(-35 624.75,452.00)">LI_L2_EDGE_REMOTE (150 ms, jitter 15 ms)</text>
<text x="840.25" y="426.00" text-anchor="middle" font-size="12">n/a</text>
<text x="840.25" y="452.00" text-anchor="end" font-size="12" transform="rotate(-35 840.25,452.00)">LI_L3_EXTREME (600 ms, jitter 50 ms)</text>
  </g>
</svg>
