<svg xmlns="http://www.w3.org/2000/svg" width="980" height="560" viewBox="0 0 980 560">
  <rect width="100%" height="100%" fill="white"/>
  <text x="490.0" y="34" text-anchor="middle" font-family="Arial, sans-serif" font-size="22" font-weight="bold">C9 — Network-Aware Scheduler: Maximum node memory snapshot</text>
  <text x="490.0" y="58" text-anchor="middle" font-family="Arial, sans-serif" font-size="13">Unit: %</text>
  <g font-family="Arial, sans-serif" fill="#222">
<line x1="86" y1="434" x2="948" y2="434" stroke="#222"/>
<line x1="86" y1="74" x2="86" y2="434" stroke="#222"/>
<line x1="81" y1="434.00" x2="948" y2="434.00" stroke="#ddd"/>
<text x="76" y="438.00" text-anchor="end" font-size="12">0.00</text>
<line x1="81" y1="362.00" x2="948" y2="362.00" stroke="#ddd"/>
<text x="76" y="366.00" text-anchor="end" font-size="12">18.00</text>
<line x1="81" y1="290.00" x2="948" y2="290.00" stroke="#ddd"/>
<text x="76" y="294.00" text-anchor="end" font-size="12">36.00</text>
<line x1="81" y1="218.00" x2="948" y2="218.00" stroke="#ddd"/>
<text x="76" y="222.00" text-anchor="end" font-size="12">54.00</text>
<line x1="81" y1="146.00" x2="948" y2="146.00" stroke="#ddd"/>
<text x="76" y="150.00" text-anchor="end" font-size="12">72.00</text>
<line x1="81" y1="74.00" x2="948" y2="74.00" stroke="#ddd"/>
<text x="76" y="78.00" text-anchor="end" font-size="12">90.00</text>
<rect x="89.90" y="300.67" width="12.72" height="133.33" fill="#666"/>
<text x="96.26" y="293.67" text-anchor="middle" font-size="12">33.33</text>
<text x="96.26" y="452.00" text-anchor="end" font-size="12" transform="rotate(-35 96.26,452.00)">NA_DEFAULT_1T_4N_L0_UNIFORM_M1_W2 (1T_4N_L0_UNIFORM_M1_W2, kubernetes_default_scheduler)</text>
<rect x="110.42" y="300.67" width="12.72" height="133.33" fill="#666"/>
<text x="116.79" y="293.67" text-anchor="middle" font-size="12">33.33</text>
<text x="116.79" y="452.00" text-anchor="end" font-size="12" transform="rotate(-35 116.79,452.00)">NA_DEFAULT_1T_4N_L2_UNIFORM_M1_W2 (1T_4N_L2_UNIFORM_M1_W2, kubernetes_default_scheduler)</text>
<rect x="130.95" y="302.00" width="12.72" height="132.00" fill="#666"/>
<text x="137.31" y="295.00" text-anchor="middle" font-size="12">33.00</text>
<text x="137.31" y="452.00" text-anchor="end" font-size="12" transform="rotate(-35 137.31,452.00)">NA_DEFAULT_2T_4N_L0_DIFFERENTIATED_M1M1_W2 (2T_4N_L0_DIFFERENTIATED_M1M1_W2, kubernetes_default_scheduler)</text>
<rect x="151.47" y="300.67" width="12.72" height="133.33" fill="#666"/>
<text x="157.83" y="293.67" text-anchor="middle" font-size="12">33.33</text>
<text x="157.83" y="452.00" text-anchor="end" font-size="12" transform="rotate(-35 157.83,452.00)">NA_DEFAULT_2T_4N_L0_UNIFORM_M1M1_W2 (2T_4N_L0_UNIFORM_M1M1_W2, kubernetes_default_scheduler)</text>
<rect x="171.99" y="302.00" width="12.72" height="132.00" fill="#666"/>
<text x="178.36" y="295.00" text-anchor="middle" font-size="12">33.00</text>
<text x="178.36" y="452.00" text-anchor="end" font-size="12" transform="rotate(-35 178.36,452.00)">NA_DEFAULT_2T_4N_L1_DIFFERENTIATED_M1M1_W2 (2T_4N_L1_DIFFERENTIATED_M1M1_W2, kubernetes_default_scheduler)</text>
<rect x="192.52" y="302.00" width="12.72" height="132.00" fill="#666"/>
<text x="198.88" y="295.00" text-anchor="middle" font-size="12">33.00</text>
<text x="198.88" y="452.00" text-anchor="end" font-size="12" transform="rotate(-35 198.88,452.00)">NA_DEFAULT_2T_4N_L1_DIFFERENTIATED_M1M2_W2 (2T_4N_L1_DIFFERENTIATED_M1M2_W2, kubernetes_default_scheduler)</text>
<rect x="213.04" y="306.00" width="12.72" height="128.00" fill="#666"/>
<text x="219.40" y="299.00" text-anchor="middle" font-size="12">32.00</text>
<text x="219.40" y="452.00" text-anchor="end" font-size="12" transform="rotate(-35 219.40,452.00)">NA_DEFAULT_2T_4N_L1_UNIFORM_M1M1_W2 (2T_4N_L1_UNIFORM_M1M1_W2, kubernetes_default_scheduler)</text>
<rect x="233.57" y="300.67" width="12.72" height="133.33" fill="#666"/>
<text x="239.93" y="293.67" text-anchor="middle" font-size="12">33.33</text>
<text x="239.93" y="452.00" text-anchor="end" font-size="12" transform="rotate(-35 239.93,452.00)">NA_DEFAULT_2T_4N_L2_DIFFERENTIATED_M1M1_W2 (2T_4N_L2_DIFFERENTIATED_M1M1_W2, kubernetes_default_scheduler)</text>
<text x="260.45" y="426.00" text-anchor="middle" font-size="12">n/a</text>
<text x="260.45" y="452.00" text-anchor="end" font-size="12" transform="rotate(-35 260.45,452.00)">NA_DEFAULT_2T_4N_L2_DIFFERENTIATED_M1M2_W2 (2T_4N_L2_DIFFERENTIATED_M1M2_W2, kubernetes_default_scheduler)</text>
<rect x="274.61" y="302.00" width="12.72" height="132.00" fill="#666"/>
<text x="280.98" y="295.00" text-anchor="middle" font-size="12">33.00</text>
<text x="280.98" y="452.00" text-anchor="end" font-size="12" transform="rotate(-35 280.98,452.00)">NA_DEFAULT_2T_4N_L2_UNIFORM_M1M1_W2 (2T_4N_L2_UNIFORM_M1M1_W2, kubernetes_default_scheduler)</text>
<rect x="295.14" y="175.33" width="12.72" height="258.67" fill="#666"/>
<text x="301.50" y="168.33" text-anchor="middle" font-size="12">64.67</text>
<text x="301.50" y="452.00" text-anchor="end" font-size="12" transform="rotate(-35 301.50,452.00)">NA_DEFAULT_2T_4N_L3_DIFFERENTIATED_M1M1_W2 (2T_4N_L3_DIFFERENTIATED_M1M1_W2, kubernetes_default_scheduler)</text>
<rect x="315.66" y="179.33" width="12.72" height="254.67" fill="#666"/>
<text x="322.02" y="172.33" text-anchor="middle" font-size="12">63.67</text>
<text x="322.02" y="452.00" text-anchor="end" font-size="12" transform="rotate(-35 322.02,452.00)">NA_DEFAULT_2T_4N_L3_DIFFERENTIATED_M1M2_W2 (2T_4N_L3_DIFFERENTIATED_M1M2_W2, kubernetes_default_scheduler)</text>
<rect x="336.19" y="299.33" width="12.72" height="134.67" fill="#666"/>
<text x="342.55" y="292.33" text-anchor="middle" font-size="12">33.67</text>
<text x="342.55" y="452.00" text-anchor="end" font-size="12" transform="rotate(-35 342.55,452.00)">NA_DEFAULT_3T_4N_L1_DIFFERENTIATED_M1M1M1_W2 (3T_4N_L1_DIFFERENTIATED_M1M1M1_W2, kubernetes_default_scheduler)</text>
<rect x="356.71" y="302.00" width="12.72" height="132.00" fill="#666"/>
<text x="363.07" y="295.00" text-anchor="middle" font-size="12">33.00</text>
<text x="363.07" y="452.00" text-anchor="end" font-size="12" transform="rotate(-35 363.07,452.00)">NA_DEFAULT_3T_4N_L2_DIFFERENTIATED_M1M1M1_W2 (3T_4N_L2_DIFFERENTIATED_M1M1M1_W2, kubernetes_default_scheduler)</text>
<rect x="377.23" y="296.67" width="12.72" height="137.33" fill="#666"/>
<text x="383.60" y="289.67" text-anchor="middle" font-size="12">34.33</text>
<text x="383.60" y="452.00" text-anchor="end" font-size="12" transform="rotate(-35 383.60,452.00)">NA_LOADAWARE_1T_4N_L0_UNIFORM_M1_W2 (1T_4N_L0_UNIFORM_M1_W2, loadaware_custom_scheduler)</text>
<rect x="397.76" y="295.33" width="12.72" height="138.67" fill="#666"/>
<text x="404.12" y="288.33" text-anchor="middle" font-size="12">34.67</text>
<text x="404.12" y="452.00" text-anchor="end" font-size="12" transform="rotate(-35 404.12,452.00)">NA_LOADAWARE_1T_4N_L2_UNIFORM_M1_W2 (1T_4N_L2_UNIFORM_M1_W2, loadaware_custom_scheduler)</text>
<rect x="418.28" y="295.33" width="12.72" height="138.67" fill="#666"/>
<text x="424.64" y="288.33" text-anchor="middle" font-size="12">34.67</text>
<text x="424.64" y="452.00" text-anchor="end" font-size="12" transform="rotate(-35 424.64,452.00)">NA_LOADAWARE_2T_4N_L0_DIFFERENTIATED_M1M1_W2 (2T_4N_L0_DIFFERENTIATED_M1M1_W2, loadaware_custom_scheduler)</text>
<rect x="438.80" y="298.00" width="12.72" height="136.00" fill="#666"/>
<text x="445.17" y="291.00" text-anchor="middle" font-size="12">34.00</text>
<text x="445.17" y="452.00" text-anchor="end" font-size="12" transform="rotate(-35 445.17,452.00)">NA_LOADAWARE_2T_4N_L0_UNIFORM_M1M1_W2 (2T_4N_L0_UNIFORM_M1M1_W2, loadaware_custom_scheduler)</text>
<rect x="459.33" y="296.67" width="12.72" height="137.33" fill="#666"/>
<text x="465.69" y="289.67" text-anchor="middle" font-size="12">34.33</text>
<text x="465.69" y="452.00" text-anchor="end" font-size="12" transform="rotate(-35 465.69,452.00)">NA_LOADAWARE_2T_4N_L1_DIFFERENTIATED_M1M1_W2 (2T_4N_L1_DIFFERENTIATED_M1M1_W2, loadaware_custom_scheduler)</text>
<rect x="479.85" y="296.67" width="12.72" height="137.33" fill="#666"/>
<text x="486.21" y="289.67" text-anchor="middle" font-size="12">34.33</text>
<text x="486.21" y="452.00" text-anchor="end" font-size="12" transform="rotate(-35 486.21,452.00)">NA_LOADAWARE_2T_4N_L1_DIFFERENTIATED_M1M2_W2 (2T_4N_L1_DIFFERENTIATED_M1M2_W2, loadaware_custom_scheduler)</text>
<rect x="500.38" y="295.33" width="12.72" height="138.67" fill="#666"/>
<text x="506.74" y="288.33" text-anchor="middle" font-size="12">34.67</text>
<text x="506.74" y="452.00" text-anchor="end" font-size="12" transform="rotate(-35 506.74,452.00)">NA_LOADAWARE_2T_4N_L1_UNIFORM_M1M1_W2 (2T_4N_L1_UNIFORM_M1M1_W2, loadaware_custom_scheduler)</text>
<rect x="520.90" y="299.33" width="12.72" height="134.67" fill="#666"/>
<text x="527.26" y="292.33" text-anchor="middle" font-size="12">33.67</text>
<text x="527.26" y="452.00" text-anchor="end" font-size="12" transform="rotate(-35 527.26,452.00)">NA_LOADAWARE_2T_4N_L2_DIFFERENTIATED_M1M1_W2 (2T_4N_L2_DIFFERENTIATED_M1M1_W2, loadaware_custom_scheduler)</text>
<rect x="541.42" y="298.00" width="12.72" height="136.00" fill="#666"/>
<text x="547.79" y="291.00" text-anchor="middle" font-size="12">34.00</text>
<text x="547.79" y="452.00" text-anchor="end" font-size="12" transform="rotate(-35 547.79,452.00)">NA_LOADAWARE_2T_4N_L2_DIFFERENTIATED_M1M2_W2 (2T_4N_L2_DIFFERENTIATED_M1M2_W2, loadaware_custom_scheduler)</text>
<rect x="561.95" y="299.33" width="12.72" height="134.67" fill="#666"/>
<text x="568.31" y="292.33" text-anchor="middle" font-size="12">33.67</text>
<text x="568.31" y="452.00" text-anchor="end" font-size="12" transform="rotate(-35 568.31,452.00)">NA_LOADAWARE_2T_4N_L2_UNIFORM_M1M1_W2 (2T_4N_L2_UNIFORM_M1M1_W2, loadaware_custom_scheduler)</text>
<rect x="582.47" y="139.33" width="12.72" height="294.67" fill="#666"/>
<text x="588.83" y="132.33" text-anchor="middle" font-size="12">73.67</text>
<text x="588.83" y="452.00" text-anchor="end" font-size="12" transform="rotate(-35 588.83,452.00)">NA_LOADAWARE_2T_4N_L3_DIFFERENTIATED_M1M1_W2 (2T_4N_L3_DIFFERENTIATED_M1M1_W2, loadaware_custom_scheduler)</text>
<rect x="602.99" y="135.33" width="12.72" height="298.67" fill="#666"/>
<text x="609.36" y="128.33" text-anchor="middle" font-size="12">74.67</text>
<text x="609.36" y="452.00" text-anchor="end" font-size="12" transform="rotate(-35 609.36,452.00)">NA_LOADAWARE_2T_4N_L3_DIFFERENTIATED_M1M2_W2 (2T_4N_L3_DIFFERENTIATED_M1M2_W2, loadaware_custom_scheduler)</text>
<rect x="623.52" y="292.67" width="12.72" height="141.33" fill="#666"/>
<text x="629.88" y="285.67" text-anchor="middle" font-size="12">35.33</text>
<text x="629.88" y="452.00" text-anchor="end" font-size="12" transform="rotate(-35 629.88,452.00)">NA_LOADAWARE_3T_4N_L1_DIFFERENTIATED_M1M1M1_W2 (3T_4N_L1_DIFFERENTIATED_M1M1M1_W2, loadaware_custom_scheduler)</text>
<rect x="644.04" y="291.33" width="12.72" height="142.67" fill="#666"/>
<text x="650.40" y="284.33" text-anchor="middle" font-size="12">35.67</text>
<text x="650.40" y="452.00" text-anchor="end" font-size="12" transform="rotate(-35 650.40,452.00)">NA_LOADAWARE_3T_4N_L2_DIFFERENTIATED_M1M1M1_W2 (3T_4N_L2_DIFFERENTIATED_M1M1M1_W2, loadaware_custom_scheduler)</text>
<rect x="664.57" y="296.67" width="12.72" height="137.33" fill="#666"/>
<text x="670.93" y="289.67" text-anchor="middle" font-size="12">34.33</text>
<text x="670.93" y="452.00" text-anchor="end" font-size="12" transform="rotate(-35 670.93,452.00)">NA_NETAWARE_1T_4N_L0_UNIFORM_M1_W2 (1T_4N_L0_UNIFORM_M1_W2, localai_resource_network_aware_scheduler)</text>
<rect x="685.09" y="296.67" width="12.72" height="137.33" fill="#666"/>
<text x="691.45" y="289.67" text-anchor="middle" font-size="12">34.33</text>
<text x="691.45" y="452.00" text-anchor="end" font-size="12" transform="rotate(-35 691.45,452.00)">NA_NETAWARE_1T_4N_L2_UNIFORM_M1_W2 (1T_4N_L2_UNIFORM_M1_W2, localai_resource_network_aware_scheduler)</text>
<rect x="705.61" y="296.67" width="12.72" height="137.33" fill="#666"/>
<text x="711.98" y="289.67" text-anchor="middle" font-size="12">34.33</text>
<text x="711.98" y="452.00" text-anchor="end" font-size="12" transform="rotate(-35 711.98,452.00)">NA_NETAWARE_2T_4N_L0_DIFFERENTIATED_M1M1_W2 (2T_4N_L0_DIFFERENTIATED_M1M1_W2, localai_resource_network_aware_scheduler)</text>
<rect x="726.14" y="300.67" width="12.72" height="133.33" fill="#666"/>
<text x="732.50" y="293.67" text-anchor="middle" font-size="12">33.33</text>
<text x="732.50" y="452.00" text-anchor="end" font-size="12" transform="rotate(-35 732.50,452.00)">NA_NETAWARE_2T_4N_L0_UNIFORM_M1M1_W2 (2T_4N_L0_UNIFORM_M1M1_W2, localai_resource_network_aware_scheduler)</text>
<rect x="746.66" y="291.33" width="12.72" height="142.67" fill="#666"/>
<text x="753.02" y="284.33" text-anchor="middle" font-size="12">35.67</text>
<text x="753.02" y="452.00" text-anchor="end" font-size="12" transform="rotate(-35 753.02,452.00)">NA_NETAWARE_2T_4N_L1_DIFFERENTIATED_M1M1_W2 (2T_4N_L1_DIFFERENTIATED_M1M1_W2, localai_resource_network_aware_scheduler)</text>
<text x="773.55" y="426.00" text-anchor="middle" font-size="12">n/a</text>
<text x="773.55" y="452.00" text-anchor="end" font-size="12" transform="rotate(-35 773.55,452.00)">NA_NETAWARE_2T_4N_L1_DIFFERENTIATED_M1M2_W2 (2T_4N_L1_DIFFERENTIATED_M1M2_W2, localai_resource_network_aware_scheduler)</text>
<rect x="787.71" y="296.67" width="12.72" height="137.33" fill="#666"/>
<text x="794.07" y="289.67" text-anchor="middle" font-size="12">34.33</text>
<text x="794.07" y="452.00" text-anchor="end" font-size="12" transform="rotate(-35 794.07,452.00)">NA_NETAWARE_2T_4N_L1_UNIFORM_M1M1_W2 (2T_4N_L1_UNIFORM_M1M1_W2, localai_resource_network_aware_scheduler)</text>
<rect x="808.23" y="292.67" width="12.72" height="141.33" fill="#666"/>
<text x="814.60" y="285.67" text-anchor="middle" font-size="12">35.33</text>
<text x="814.60" y="452.00" text-anchor="end" font-size="12" transform="rotate(-35 814.60,452.00)">NA_NETAWARE_2T_4N_L2_DIFFERENTIATED_M1M1_W2 (2T_4N_L2_DIFFERENTIATED_M1M1_W2, localai_resource_network_aware_scheduler)</text>
<rect x="828.76" y="300.67" width="12.72" height="133.33" fill="#666"/>
<text x="835.12" y="293.67" text-anchor="middle" font-size="12">33.33</text>
<text x="835.12" y="452.00" text-anchor="end" font-size="12" transform="rotate(-35 835.12,452.00)">NA_NETAWARE_2T_4N_L2_DIFFERENTIATED_M1M2_W2 (2T_4N_L2_DIFFERENTIATED_M1M2_W2, localai_resource_network_aware_scheduler)</text>
<rect x="849.28" y="294.00" width="12.72" height="140.00" fill="#666"/>
<text x="855.64" y="287.00" text-anchor="middle" font-size="12">35.00</text>
<text x="855.64" y="452.00" text-anchor="end" font-size="12" transform="rotate(-35 855.64,452.00)">NA_NETAWARE_2T_4N_L2_UNIFORM_M1M1_W2 (2T_4N_L2_UNIFORM_M1M1_W2, localai_resource_network_aware_scheduler)</text>
<rect x="869.80" y="150.00" width="12.72" height="284.00" fill="#666"/>
<text x="876.17" y="143.00" text-anchor="middle" font-size="12">71.00</text>
<text x="876.17" y="452.00" text-anchor="end" font-size="12" transform="rotate(-35 876.17,452.00)">NA_NETAWARE_2T_4N_L3_DIFFERENTIATED_M1M1_W2 (2T_4N_L3_DIFFERENTIATED_M1M1_W2, localai_resource_network_aware_scheduler)</text>
<rect x="890.33" y="136.67" width="12.72" height="297.33" fill="#666"/>
<text x="896.69" y="129.67" text-anchor="middle" font-size="12">74.33</text>
<text x="896.69" y="452.00" text-anchor="end" font-size="12" transform="rotate(-35 896.69,452.00)">NA_NETAWARE_2T_4N_L3_DIFFERENTIATED_M1M2_W2 (2T_4N_L3_DIFFERENTIATED_M1M2_W2, localai_resource_network_aware_scheduler)</text>
<rect x="910.85" y="295.33" width="12.72" height="138.67" fill="#666"/>
<text x="917.21" y="288.33" text-anchor="middle" font-size="12">34.67</text>
<text x="917.21" y="452.00" text-anchor="end" font-size="12" transform="rotate(-35 917.21,452.00)">NA_NETAWARE_3T_4N_L1_DIFFERENTIATED_M1M1M1_W2 (3T_4N_L1_DIFFERENTIATED_M1M1M1_W2, localai_resource_network_aware_scheduler)</text>
<rect x="931.38" y="295.33" width="12.72" height="138.67" fill="#666"/>
<text x="937.74" y="288.33" text-anchor="middle" font-size="12">34.67</text>
<text x="937.74" y="452.00" text-anchor="end" font-size="12" transform="rotate(-35 937.74,452.00)">NA_NETAWARE_3T_4N_L2_DIFFERENTIATED_M1M1M1_W2 (3T_4N_L2_DIFFERENTIATED_M1M1M1_W2, localai_resource_network_aware_scheduler)</text>
  </g>
</svg>
