<svg xmlns="http://www.w3.org/2000/svg" width="980" height="560" viewBox="0 0 980 560">
  <rect width="100%" height="100%" fill="white"/>
  <text x="490.0" y="34" text-anchor="middle" font-family="Arial, sans-serif" font-size="22" font-weight="bold">C9 — Network-Aware Scheduler: Mean response time</text>
  <text x="490.0" y="58" text-anchor="middle" font-family="Arial, sans-serif" font-size="13">Unit: ms</text>
  <g font-family="Arial, sans-serif" fill="#222">
<line x1="86" y1="434" x2="948" y2="434" stroke="#222"/>
<line x1="86" y1="74" x2="86" y2="434" stroke="#222"/>
<line x1="81" y1="434.00" x2="948" y2="434.00" stroke="#ddd"/>
<text x="76" y="438.00" text-anchor="end" font-size="12">0.00</text>
<line x1="81" y1="362.00" x2="948" y2="362.00" stroke="#ddd"/>
<text x="76" y="366.00" text-anchor="end" font-size="12">600.00</text>
<line x1="81" y1="290.00" x2="948" y2="290.00" stroke="#ddd"/>
<text x="76" y="294.00" text-anchor="end" font-size="12">1200.00</text>
<line x1="81" y1="218.00" x2="948" y2="218.00" stroke="#ddd"/>
<text x="76" y="222.00" text-anchor="end" font-size="12">1800.00</text>
<line x1="81" y1="146.00" x2="948" y2="146.00" stroke="#ddd"/>
<text x="76" y="150.00" text-anchor="end" font-size="12">2400.00</text>
<line x1="81" y1="74.00" x2="948" y2="74.00" stroke="#ddd"/>
<text x="76" y="78.00" text-anchor="end" font-size="12">3000.00</text>
<rect x="89.90" y="244.84" width="12.72" height="189.16" fill="#666"/>
<text x="96.26" y="237.84" text-anchor="middle" font-size="12">1576.35</text>
<text x="96.26" y="452.00" text-anchor="end" font-size="12" transform="rotate(-35 96.26,452.00)">NA_DEFAULT_1T_4N_L0_UNIFORM_M1_W2 (1T_4N_L0_UNIFORM_M1_W2, kubernetes_default_scheduler)</text>
<rect x="110.42" y="240.49" width="12.72" height="193.51" fill="#666"/>
<text x="116.79" y="233.49" text-anchor="middle" font-size="12">1612.57</text>
<text x="116.79" y="452.00" text-anchor="end" font-size="12" transform="rotate(-35 116.79,452.00)">NA_DEFAULT_1T_4N_L2_UNIFORM_M1_W2 (1T_4N_L2_UNIFORM_M1_W2, kubernetes_default_scheduler)</text>
<rect x="130.95" y="246.68" width="12.72" height="187.32" fill="#666"/>
<text x="137.31" y="239.68" text-anchor="middle" font-size="12">1560.96</text>
<text x="137.31" y="452.00" text-anchor="end" font-size="12" transform="rotate(-35 137.31,452.00)">NA_DEFAULT_2T_4N_L0_DIFFERENTIATED_M1M1_W2 (2T_4N_L0_DIFFERENTIATED_M1M1_W2, kubernetes_default_scheduler)</text>
<rect x="151.47" y="242.62" width="12.72" height="191.38" fill="#666"/>
<text x="157.83" y="235.62" text-anchor="middle" font-size="12">1594.85</text>
<text x="157.83" y="452.00" text-anchor="end" font-size="12" transform="rotate(-35 157.83,452.00)">NA_DEFAULT_2T_4N_L0_UNIFORM_M1M1_W2 (2T_4N_L0_UNIFORM_M1M1_W2, kubernetes_default_scheduler)</text>
<rect x="171.99" y="244.57" width="12.72" height="189.43" fill="#666"/>
<text x="178.36" y="237.57" text-anchor="middle" font-size="12">1578.58</text>
<text x="178.36" y="452.00" text-anchor="end" font-size="12" transform="rotate(-35 178.36,452.00)">NA_DEFAULT_2T_4N_L1_DIFFERENTIATED_M1M1_W2 (2T_4N_L1_DIFFERENTIATED_M1M1_W2, kubernetes_default_scheduler)</text>
<rect x="192.52" y="237.28" width="12.72" height="196.72" fill="#666"/>
<text x="198.88" y="230.28" text-anchor="middle" font-size="12">1639.31</text>
<text x="198.88" y="452.00" text-anchor="end" font-size="12" transform="rotate(-35 198.88,452.00)">NA_DEFAULT_2T_4N_L1_DIFFERENTIATED_M1M2_W2 (2T_4N_L1_DIFFERENTIATED_M1M2_W2, kubernetes_default_scheduler)</text>
<rect x="213.04" y="242.32" width="12.72" height="191.68" fill="#666"/>
<text x="219.40" y="235.32" text-anchor="middle" font-size="12">1597.35</text>
<text x="219.40" y="452.00" text-anchor="end" font-size="12" transform="rotate(-35 219.40,452.00)">NA_DEFAULT_2T_4N_L1_UNIFORM_M1M1_W2 (2T_4N_L1_UNIFORM_M1M1_W2, kubernetes_default_scheduler)</text>
<rect x="233.57" y="244.05" width="12.72" height="189.95" fill="#666"/>
<text x="239.93" y="237.05" text-anchor="middle" font-size="12">1582.89</text>
<text x="239.93" y="452.00" text-anchor="end" font-size="12" transform="rotate(-35 239.93,452.00)">NA_DEFAULT_2T_4N_L2_DIFFERENTIATED_M1M1_W2 (2T_4N_L2_DIFFERENTIATED_M1M1_W2, kubernetes_default_scheduler)</text>
<text x="260.45" y="426.00" text-anchor="middle" font-size="12">n/a</text>
<text x="260.45" y="452.00" text-anchor="end" font-size="12" transform="rotate(-35 260.45,452.00)">NA_DEFAULT_2T_4N_L2_DIFFERENTIATED_M1M2_W2 (2T_4N_L2_DIFFERENTIATED_M1M2_W2, kubernetes_default_scheduler)</text>
<rect x="274.61" y="248.37" width="12.72" height="185.63" fill="#666"/>
<text x="280.98" y="241.37" text-anchor="middle" font-size="12">1546.91</text>
<text x="280.98" y="452.00" text-anchor="end" font-size="12" transform="rotate(-35 280.98,452.00)">NA_DEFAULT_2T_4N_L2_UNIFORM_M1M1_W2 (2T_4N_L2_UNIFORM_M1M1_W2, kubernetes_default_scheduler)</text>
<rect x="295.14" y="239.00" width="12.72" height="195.00" fill="#666"/>
<text x="301.50" y="232.00" text-anchor="middle" font-size="12">1624.96</text>
<text x="301.50" y="452.00" text-anchor="end" font-size="12" transform="rotate(-35 301.50,452.00)">NA_DEFAULT_2T_4N_L3_DIFFERENTIATED_M1M1_W2 (2T_4N_L3_DIFFERENTIATED_M1M1_W2, kubernetes_default_scheduler)</text>
<rect x="315.66" y="251.96" width="12.72" height="182.04" fill="#666"/>
<text x="322.02" y="244.96" text-anchor="middle" font-size="12">1517.01</text>
<text x="322.02" y="452.00" text-anchor="end" font-size="12" transform="rotate(-35 322.02,452.00)">NA_DEFAULT_2T_4N_L3_DIFFERENTIATED_M1M2_W2 (2T_4N_L3_DIFFERENTIATED_M1M2_W2, kubernetes_default_scheduler)</text>
<rect x="336.19" y="223.68" width="12.72" height="210.32" fill="#666"/>
<text x="342.55" y="216.68" text-anchor="middle" font-size="12">1752.69</text>
<text x="342.55" y="452.00" text-anchor="end" font-size="12" transform="rotate(-35 342.55,452.00)">NA_DEFAULT_3T_4N_L1_DIFFERENTIATED_M1M1M1_W2 (3T_4N_L1_DIFFERENTIATED_M1M1M1_W2, kubernetes_default_scheduler)</text>
<rect x="356.71" y="222.41" width="12.72" height="211.59" fill="#666"/>
<text x="363.07" y="215.41" text-anchor="middle" font-size="12">1763.28</text>
<text x="363.07" y="452.00" text-anchor="end" font-size="12" transform="rotate(-35 363.07,452.00)">NA_DEFAULT_3T_4N_L2_DIFFERENTIATED_M1M1M1_W2 (3T_4N_L2_DIFFERENTIATED_M1M1M1_W2, kubernetes_default_scheduler)</text>
<rect x="377.23" y="247.20" width="12.72" height="186.80" fill="#666"/>
<text x="383.60" y="240.20" text-anchor="middle" font-size="12">1556.68</text>
<text x="383.60" y="452.00" text-anchor="end" font-size="12" transform="rotate(-35 383.60,452.00)">NA_LOADAWARE_1T_4N_L0_UNIFORM_M1_W2 (1T_4N_L0_UNIFORM_M1_W2, loadaware_custom_scheduler)</text>
<rect x="397.76" y="226.95" width="12.72" height="207.05" fill="#666"/>
<text x="404.12" y="219.95" text-anchor="middle" font-size="12">1725.44</text>
<text x="404.12" y="452.00" text-anchor="end" font-size="12" transform="rotate(-35 404.12,452.00)">NA_LOADAWARE_1T_4N_L2_UNIFORM_M1_W2 (1T_4N_L2_UNIFORM_M1_W2, loadaware_custom_scheduler)</text>
<rect x="418.28" y="232.98" width="12.72" height="201.02" fill="#666"/>
<text x="424.64" y="225.98" text-anchor="middle" font-size="12">1675.18</text>
<text x="424.64" y="452.00" text-anchor="end" font-size="12" transform="rotate(-35 424.64,452.00)">NA_LOADAWARE_2T_4N_L0_DIFFERENTIATED_M1M1_W2 (2T_4N_L0_DIFFERENTIATED_M1M1_W2, loadaware_custom_scheduler)</text>
<rect x="438.80" y="225.18" width="12.72" height="208.82" fill="#666"/>
<text x="445.17" y="218.18" text-anchor="middle" font-size="12">1740.15</text>
<text x="445.17" y="452.00" text-anchor="end" font-size="12" transform="rotate(-35 445.17,452.00)">NA_LOADAWARE_2T_4N_L0_UNIFORM_M1M1_W2 (2T_4N_L0_UNIFORM_M1M1_W2, loadaware_custom_scheduler)</text>
<rect x="459.33" y="234.53" width="12.72" height="199.47" fill="#666"/>
<text x="465.69" y="227.53" text-anchor="middle" font-size="12">1662.22</text>
<text x="465.69" y="452.00" text-anchor="end" font-size="12" transform="rotate(-35 465.69,452.00)">NA_LOADAWARE_2T_4N_L1_DIFFERENTIATED_M1M1_W2 (2T_4N_L1_DIFFERENTIATED_M1M1_W2, loadaware_custom_scheduler)</text>
<rect x="479.85" y="118.77" width="12.72" height="315.23" fill="#666"/>
<text x="486.21" y="111.77" text-anchor="middle" font-size="12">2626.94</text>
<text x="486.21" y="452.00" text-anchor="end" font-size="12" transform="rotate(-35 486.21,452.00)">NA_LOADAWARE_2T_4N_L1_DIFFERENTIATED_M1M2_W2 (2T_4N_L1_DIFFERENTIATED_M1M2_W2, loadaware_custom_scheduler)</text>
<rect x="500.38" y="233.02" width="12.72" height="200.98" fill="#666"/>
<text x="506.74" y="226.02" text-anchor="middle" font-size="12">1674.82</text>
<text x="506.74" y="452.00" text-anchor="end" font-size="12" transform="rotate(-35 506.74,452.00)">NA_LOADAWARE_2T_4N_L1_UNIFORM_M1M1_W2 (2T_4N_L1_UNIFORM_M1M1_W2, loadaware_custom_scheduler)</text>
<rect x="520.90" y="234.89" width="12.72" height="199.11" fill="#666"/>
<text x="527.26" y="227.89" text-anchor="middle" font-size="12">1659.21</text>
<text x="527.26" y="452.00" text-anchor="end" font-size="12" transform="rotate(-35 527.26,452.00)">NA_LOADAWARE_2T_4N_L2_DIFFERENTIATED_M1M1_W2 (2T_4N_L2_DIFFERENTIATED_M1M1_W2, loadaware_custom_scheduler)</text>
<rect x="541.42" y="211.65" width="12.72" height="222.35" fill="#666"/>
<text x="547.79" y="204.65" text-anchor="middle" font-size="12">1852.90</text>
<text x="547.79" y="452.00" text-anchor="end" font-size="12" transform="rotate(-35 547.79,452.00)">NA_LOADAWARE_2T_4N_L2_DIFFERENTIATED_M1M2_W2 (2T_4N_L2_DIFFERENTIATED_M1M2_W2, loadaware_custom_scheduler)</text>
<rect x="561.95" y="230.16" width="12.72" height="203.84" fill="#666"/>
<text x="568.31" y="223.16" text-anchor="middle" font-size="12">1698.67</text>
<text x="568.31" y="452.00" text-anchor="end" font-size="12" transform="rotate(-35 568.31,452.00)">NA_LOADAWARE_2T_4N_L2_UNIFORM_M1M1_W2 (2T_4N_L2_UNIFORM_M1M1_W2, loadaware_custom_scheduler)</text>
<rect x="582.47" y="239.82" width="12.72" height="194.18" fill="#666"/>
<text x="588.83" y="232.82" text-anchor="middle" font-size="12">1618.20</text>
<text x="588.83" y="452.00" text-anchor="end" font-size="12" transform="rotate(-35 588.83,452.00)">NA_LOADAWARE_2T_4N_L3_DIFFERENTIATED_M1M1_W2 (2T_4N_L3_DIFFERENTIATED_M1M1_W2, loadaware_custom_scheduler)</text>
<rect x="602.99" y="225.39" width="12.72" height="208.61" fill="#666"/>
<text x="609.36" y="218.39" text-anchor="middle" font-size="12">1738.43</text>
<text x="609.36" y="452.00" text-anchor="end" font-size="12" transform="rotate(-35 609.36,452.00)">NA_LOADAWARE_2T_4N_L3_DIFFERENTIATED_M1M2_W2 (2T_4N_L3_DIFFERENTIATED_M1M2_W2, loadaware_custom_scheduler)</text>
<rect x="623.52" y="206.41" width="12.72" height="227.59" fill="#666"/>
<text x="629.88" y="199.41" text-anchor="middle" font-size="12">1896.56</text>
<text x="629.88" y="452.00" text-anchor="end" font-size="12" transform="rotate(-35 629.88,452.00)">NA_LOADAWARE_3T_4N_L1_DIFFERENTIATED_M1M1M1_W2 (3T_4N_L1_DIFFERENTIATED_M1M1M1_W2, loadaware_custom_scheduler)</text>
<rect x="644.04" y="208.28" width="12.72" height="225.72" fill="#666"/>
<text x="650.40" y="201.28" text-anchor="middle" font-size="12">1881.03</text>
<text x="650.40" y="452.00" text-anchor="end" font-size="12" transform="rotate(-35 650.40,452.00)">NA_LOADAWARE_3T_4N_L2_DIFFERENTIATED_M1M1M1_W2 (3T_4N_L2_DIFFERENTIATED_M1M1M1_W2, loadaware_custom_scheduler)</text>
<rect x="664.57" y="250.94" width="12.72" height="183.06" fill="#666"/>
<text x="670.93" y="243.94" text-anchor="middle" font-size="12">1525.49</text>
<text x="670.93" y="452.00" text-anchor="end" font-size="12" transform="rotate(-35 670.93,452.00)">NA_NETAWARE_1T_4N_L0_UNIFORM_M1_W2 (1T_4N_L0_UNIFORM_M1_W2, localai_resource_network_aware_scheduler)</text>
<rect x="685.09" y="249.78" width="12.72" height="184.22" fill="#666"/>
<text x="691.45" y="242.78" text-anchor="middle" font-size="12">1535.15</text>
<text x="691.45" y="452.00" text-anchor="end" font-size="12" transform="rotate(-35 691.45,452.00)">NA_NETAWARE_1T_4N_L2_UNIFORM_M1_W2 (1T_4N_L2_UNIFORM_M1_W2, localai_resource_network_aware_scheduler)</text>
<rect x="705.61" y="235.89" width="12.72" height="198.11" fill="#666"/>
<text x="711.98" y="228.89" text-anchor="middle" font-size="12">1650.95</text>
<text x="711.98" y="452.00" text-anchor="end" font-size="12" transform="rotate(-35 711.98,452.00)">NA_NETAWARE_2T_4N_L0_DIFFERENTIATED_M1M1_W2 (2T_4N_L0_DIFFERENTIATED_M1M1_W2, localai_resource_network_aware_scheduler)</text>
<rect x="726.14" y="228.94" width="12.72" height="205.06" fill="#666"/>
<text x="732.50" y="221.94" text-anchor="middle" font-size="12">1708.81</text>
<text x="732.50" y="452.00" text-anchor="end" font-size="12" transform="rotate(-35 732.50,452.00)">NA_NETAWARE_2T_4N_L0_UNIFORM_M1M1_W2 (2T_4N_L0_UNIFORM_M1M1_W2, localai_resource_network_aware_scheduler)</text>
<rect x="746.66" y="240.18" width="12.72" height="193.82" fill="#666"/>
<text x="753.02" y="233.18" text-anchor="middle" font-size="12">1615.14</text>
<text x="753.02" y="452.00" text-anchor="end" font-size="12" transform="rotate(-35 753.02,452.00)">NA_NETAWARE_2T_4N_L1_DIFFERENTIATED_M1M1_W2 (2T_4N_L1_DIFFERENTIATED_M1M1_W2, localai_resource_network_aware_scheduler)</text>
<text x="773.55" y="426.00" text-anchor="middle" font-size="12">n/a</text>
<text x="773.55" y="452.00" text-anchor="end" font-size="12" transform="rotate(-35 773.55,452.00)">NA_NETAWARE_2T_4N_L1_DIFFERENTIATED_M1M2_W2 (2T_4N_L1_DIFFERENTIATED_M1M2_W2, localai_resource_network_aware_scheduler)</text>
<rect x="787.71" y="235.84" width="12.72" height="198.16" fill="#666"/>
<text x="794.07" y="228.84" text-anchor="middle" font-size="12">1651.31</text>
<text x="794.07" y="452.00" text-anchor="end" font-size="12" transform="rotate(-35 794.07,452.00)">NA_NETAWARE_2T_4N_L1_UNIFORM_M1M1_W2 (2T_4N_L1_UNIFORM_M1M1_W2, localai_resource_network_aware_scheduler)</text>
<rect x="808.23" y="236.15" width="12.72" height="197.85" fill="#666"/>
<text x="814.60" y="229.15" text-anchor="middle" font-size="12">1648.73</text>
<text x="814.60" y="452.00" text-anchor="end" font-size="12" transform="rotate(-35 814.60,452.00)">NA_NETAWARE_2T_4N_L2_DIFFERENTIATED_M1M1_W2 (2T_4N_L2_DIFFERENTIATED_M1M1_W2, localai_resource_network_aware_scheduler)</text>
<rect x="828.76" y="234.39" width="12.72" height="199.61" fill="#666"/>
<text x="835.12" y="227.39" text-anchor="middle" font-size="12">1663.45</text>
<text x="835.12" y="452.00" text-anchor="end" font-size="12" transform="rotate(-35 835.12,452.00)">NA_NETAWARE_2T_4N_L2_DIFFERENTIATED_M1M2_W2 (2T_4N_L2_DIFFERENTIATED_M1M2_W2, localai_resource_network_aware_scheduler)</text>
<rect x="849.28" y="238.91" width="12.72" height="195.09" fill="#666"/>
<text x="855.64" y="231.91" text-anchor="middle" font-size="12">1625.74</text>
<text x="855.64" y="452.00" text-anchor="end" font-size="12" transform="rotate(-35 855.64,452.00)">NA_NETAWARE_2T_4N_L2_UNIFORM_M1M1_W2 (2T_4N_L2_UNIFORM_M1M1_W2, localai_resource_network_aware_scheduler)</text>
<rect x="869.80" y="241.13" width="12.72" height="192.87" fill="#666"/>
<text x="876.17" y="234.13" text-anchor="middle" font-size="12">1607.24</text>
<text x="876.17" y="452.00" text-anchor="end" font-size="12" transform="rotate(-35 876.17,452.00)">NA_NETAWARE_2T_4N_L3_DIFFERENTIATED_M1M1_W2 (2T_4N_L3_DIFFERENTIATED_M1M1_W2, localai_resource_network_aware_scheduler)</text>
<rect x="890.33" y="242.91" width="12.72" height="191.09" fill="#666"/>
<text x="896.69" y="235.91" text-anchor="middle" font-size="12">1592.43</text>
<text x="896.69" y="452.00" text-anchor="end" font-size="12" transform="rotate(-35 896.69,452.00)">NA_NETAWARE_2T_4N_L3_DIFFERENTIATED_M1M2_W2 (2T_4N_L3_DIFFERENTIATED_M1M2_W2, localai_resource_network_aware_scheduler)</text>
<rect x="910.85" y="216.28" width="12.72" height="217.72" fill="#666"/>
<text x="917.21" y="209.28" text-anchor="middle" font-size="12">1814.36</text>
<text x="917.21" y="452.00" text-anchor="end" font-size="12" transform="rotate(-35 917.21,452.00)">NA_NETAWARE_3T_4N_L1_DIFFERENTIATED_M1M1M1_W2 (3T_4N_L1_DIFFERENTIATED_M1M1M1_W2, localai_resource_network_aware_scheduler)</text>
<rect x="931.38" y="126.73" width="12.72" height="307.27" fill="#666"/>
<text x="937.74" y="119.73" text-anchor="middle" font-size="12">2560.57</text>
<text x="937.74" y="452.00" text-anchor="end" font-size="12" transform="rotate(-35 937.74,452.00)">NA_NETAWARE_3T_4N_L2_DIFFERENTIATED_M1M1M1_W2 (3T_4N_L2_DIFFERENTIATED_M1M1M1_W2, localai_resource_network_aware_scheduler)</text>
  </g>
</svg>
