<svg xmlns="http://www.w3.org/2000/svg" width="980" height="560" viewBox="0 0 980 560">
  <rect width="100%" height="100%" fill="white"/>
  <text x="490.0" y="34" text-anchor="middle" font-family="Arial, sans-serif" font-size="22" font-weight="bold">C8 — Scheduler Comparison: Maximum pod CPU snapshot</text>
  <text x="490.0" y="58" text-anchor="middle" font-family="Arial, sans-serif" font-size="13">Unit: mCPU</text>
  <g font-family="Arial, sans-serif" fill="#222">
<line x1="86" y1="434" x2="948" y2="434" stroke="#222"/>
<line x1="86" y1="74" x2="86" y2="434" stroke="#222"/>
<line x1="81" y1="434.00" x2="948" y2="434.00" stroke="#ddd"/>
<text x="76" y="438.00" text-anchor="end" font-size="12">0.00</text>
<line x1="81" y1="362.00" x2="948" y2="362.00" stroke="#ddd"/>
<text x="76" y="366.00" text-anchor="end" font-size="12">120.00</text>
<line x1="81" y1="290.00" x2="948" y2="290.00" stroke="#ddd"/>
<text x="76" y="294.00" text-anchor="end" font-size="12">240.00</text>
<line x1="81" y1="218.00" x2="948" y2="218.00" stroke="#ddd"/>
<text x="76" y="222.00" text-anchor="end" font-size="12">360.00</text>
<line x1="81" y1="146.00" x2="948" y2="146.00" stroke="#ddd"/>
<text x="76" y="150.00" text-anchor="end" font-size="12">480.00</text>
<line x1="81" y1="74.00" x2="948" y2="74.00" stroke="#ddd"/>
<text x="76" y="78.00" text-anchor="end" font-size="12">600.00</text>
<rect x="96.24" y="203.00" width="33.40" height="231.00" fill="#666"/>
<text x="112.94" y="196.00" text-anchor="middle" font-size="12">385.00</text>
<text x="112.94" y="452.00" text-anchor="end" font-size="12" transform="rotate(-35 112.94,452.00)">SC_DEFAULT_1T_2N_L0_UNIFORM_M1_W2 (1T_2N_L0_UNIFORM_M1_W2, default)</text>
<rect x="150.11" y="199.80" width="33.40" height="234.20" fill="#666"/>
<text x="166.81" y="192.80" text-anchor="middle" font-size="12">390.33</text>
<text x="166.81" y="452.00" text-anchor="end" font-size="12" transform="rotate(-35 166.81,452.00)">SC_DEFAULT_1T_4N_L0_UNIFORM_M1_W2 (1T_4N_L0_UNIFORM_M1_W2, default)</text>
<rect x="203.99" y="198.20" width="33.40" height="235.80" fill="#666"/>
<text x="220.69" y="191.20" text-anchor="middle" font-size="12">393.00</text>
<text x="220.69" y="452.00" text-anchor="end" font-size="12" transform="rotate(-35 220.69,452.00)">SC_DEFAULT_2T_2N_L0_DIFFERENTIATED_M1M1_W2 (2T_2N_L0_DIFFERENTIATED_M1M1_W2, default)</text>
<rect x="257.86" y="199.60" width="33.40" height="234.40" fill="#666"/>
<text x="274.56" y="192.60" text-anchor="middle" font-size="12">390.67</text>
<text x="274.56" y="452.00" text-anchor="end" font-size="12" transform="rotate(-35 274.56,452.00)">SC_DEFAULT_2T_2N_L0_UNIFORM_M1M1_W2 (2T_2N_L0_UNIFORM_M1M1_W2, default)</text>
<text x="328.44" y="426.00" text-anchor="middle" font-size="12">n/a</text>
<text x="328.44" y="452.00" text-anchor="end" font-size="12" transform="rotate(-35 328.44,452.00)">SC_DEFAULT_2T_4N_L0_DIFFERENTIATED_M1M1_W2 (2T_4N_L0_DIFFERENTIATED_M1M1_W2, default)</text>
<rect x="365.61" y="205.80" width="33.40" height="228.20" fill="#666"/>
<text x="382.31" y="198.80" text-anchor="middle" font-size="12">380.33</text>
<text x="382.31" y="452.00" text-anchor="end" font-size="12" transform="rotate(-35 382.31,452.00)">SC_DEFAULT_2T_4N_L0_UNIFORM_M1M1_W2 (2T_4N_L0_UNIFORM_M1M1_W2, default)</text>
<rect x="419.49" y="234.20" width="33.40" height="199.80" fill="#666"/>
<text x="436.19" y="227.20" text-anchor="middle" font-size="12">333.00</text>
<text x="436.19" y="452.00" text-anchor="end" font-size="12" transform="rotate(-35 436.19,452.00)">SC_DEFAULT_2T_4N_L0_UNIFORM_M1M2_W2 (2T_4N_L0_UNIFORM_M1M2_W2, default)</text>
<rect x="473.36" y="212.80" width="33.40" height="221.20" fill="#666"/>
<text x="490.06" y="205.80" text-anchor="middle" font-size="12">368.67</text>
<text x="490.06" y="452.00" text-anchor="end" font-size="12" transform="rotate(-35 490.06,452.00)">SC_DEFAULT_3T_4N_L0_UNIFORM_M1M1M1_W2 (3T_4N_L0_UNIFORM_M1M1M1_W2, default)</text>
<rect x="527.24" y="206.60" width="33.40" height="227.40" fill="#666"/>
<text x="543.94" y="199.60" text-anchor="middle" font-size="12">379.00</text>
<text x="543.94" y="452.00" text-anchor="end" font-size="12" transform="rotate(-35 543.94,452.00)">SC_LOADAWARE_1T_2N_L0_UNIFORM_M1_W2 (1T_2N_L0_UNIFORM_M1_W2, loadaware)</text>
<rect x="581.11" y="207.00" width="33.40" height="227.00" fill="#666"/>
<text x="597.81" y="200.00" text-anchor="middle" font-size="12">378.33</text>
<text x="597.81" y="452.00" text-anchor="end" font-size="12" transform="rotate(-35 597.81,452.00)">SC_LOADAWARE_1T_4N_L0_UNIFORM_M1_W2 (1T_4N_L0_UNIFORM_M1_W2, loadaware)</text>
<rect x="634.99" y="151.60" width="33.40" height="282.40" fill="#666"/>
<text x="651.69" y="144.60" text-anchor="middle" font-size="12">470.67</text>
<text x="651.69" y="452.00" text-anchor="end" font-size="12" transform="rotate(-35 651.69,452.00)">SC_LOADAWARE_2T_2N_L0_DIFFERENTIATED_M1M1_W2 (2T_2N_L0_DIFFERENTIATED_M1M1_W2, loadaware)</text>
<rect x="688.86" y="210.80" width="33.40" height="223.20" fill="#666"/>
<text x="705.56" y="203.80" text-anchor="middle" font-size="12">372.00</text>
<text x="705.56" y="452.00" text-anchor="end" font-size="12" transform="rotate(-35 705.56,452.00)">SC_LOADAWARE_2T_2N_L0_UNIFORM_M1M1_W2 (2T_2N_L0_UNIFORM_M1M1_W2, loadaware)</text>
<rect x="742.74" y="183.20" width="33.40" height="250.80" fill="#666"/>
<text x="759.44" y="176.20" text-anchor="middle" font-size="12">418.00</text>
<text x="759.44" y="452.00" text-anchor="end" font-size="12" transform="rotate(-35 759.44,452.00)">SC_LOADAWARE_2T_4N_L0_DIFFERENTIATED_M1M1_W2 (2T_4N_L0_DIFFERENTIATED_M1M1_W2, loadaware)</text>
<rect x="796.61" y="220.60" width="33.40" height="213.40" fill="#666"/>
<text x="813.31" y="213.60" text-anchor="middle" font-size="12">355.67</text>
<text x="813.31" y="452.00" text-anchor="end" font-size="12" transform="rotate(-35 813.31,452.00)">SC_LOADAWARE_2T_4N_L0_UNIFORM_M1M1_W2 (2T_4N_L0_UNIFORM_M1M1_W2, loadaware)</text>
<rect x="850.49" y="162.00" width="33.40" height="272.00" fill="#666"/>
<text x="867.19" y="155.00" text-anchor="middle" font-size="12">453.33</text>
<text x="867.19" y="452.00" text-anchor="end" font-size="12" transform="rotate(-35 867.19,452.00)">SC_LOADAWARE_2T_4N_L0_UNIFORM_M1M2_W2 (2T_4N_L0_UNIFORM_M1M2_W2, loadaware)</text>
<rect x="904.36" y="186.80" width="33.40" height="247.20" fill="#666"/>
<text x="921.06" y="179.80" text-anchor="middle" font-size="12">412.00</text>
<text x="921.06" y="452.00" text-anchor="end" font-size="12" transform="rotate(-35 921.06,452.00)">SC_LOADAWARE_3T_4N_L0_UNIFORM_M1M1M1_W2 (3T_4N_L0_UNIFORM_M1M1M1_W2, loadaware)</text>
  </g>
</svg>
