<svg xmlns="http://www.w3.org/2000/svg" width="980" height="560" viewBox="0 0 980 560">
  <rect width="100%" height="100%" fill="white"/>
  <text x="490.0" y="34" text-anchor="middle" font-family="Arial, sans-serif" font-size="22" font-weight="bold">C6 — Multi-Tenancy: Maximum pod CPU snapshot</text>
  <text x="490.0" y="58" text-anchor="middle" font-family="Arial, sans-serif" font-size="13">Unit: mCPU</text>
  <g font-family="Arial, sans-serif" fill="#222">
<line x1="86" y1="434" x2="948" y2="434" stroke="#222"/>
<line x1="86" y1="74" x2="86" y2="434" stroke="#222"/>
<line x1="81" y1="434.00" x2="948" y2="434.00" stroke="#ddd"/>
<text x="76" y="438.00" text-anchor="end" font-size="12">0.00</text>
<line x1="81" y1="362.00" x2="948" y2="362.00" stroke="#ddd"/>
<text x="76" y="366.00" text-anchor="end" font-size="12">400.00</text>
<line x1="81" y1="290.00" x2="948" y2="290.00" stroke="#ddd"/>
<text x="76" y="294.00" text-anchor="end" font-size="12">800.00</text>
<line x1="81" y1="218.00" x2="948" y2="218.00" stroke="#ddd"/>
<text x="76" y="222.00" text-anchor="end" font-size="12">1200.00</text>
<line x1="81" y1="146.00" x2="948" y2="146.00" stroke="#ddd"/>
<text x="76" y="150.00" text-anchor="end" font-size="12">1600.00</text>
<line x1="81" y1="74.00" x2="948" y2="74.00" stroke="#ddd"/>
<text x="76" y="78.00" text-anchor="end" font-size="12">2000.00</text>
<rect x="156.75" y="177.02" width="74.00" height="256.98" fill="#666"/>
<text x="193.75" y="170.02" text-anchor="middle" font-size="12">1427.67</text>
<text x="193.75" y="452.00" text-anchor="end" font-size="12" transform="rotate(-35 193.75,452.00)">MT_SINGLE_TENANT_REFERENCE</text>
<rect x="372.25" y="176.96" width="74.00" height="257.04" fill="#666"/>
<text x="409.25" y="169.96" text-anchor="middle" font-size="12">1428.00</text>
<text x="409.25" y="452.00" text-anchor="end" font-size="12" transform="rotate(-35 409.25,452.00)">MT_TWO_TENANTS_MIXED_MODELS</text>
<rect x="587.75" y="161.84" width="74.00" height="272.16" fill="#666"/>
<text x="624.75" y="154.84" text-anchor="middle" font-size="12">1512.00</text>
<text x="624.75" y="452.00" text-anchor="end" font-size="12" transform="rotate(-35 624.75,452.00)">MT_TWO_TENANTS_SEPARATED</text>
<text x="840.25" y="426.00" text-anchor="middle" font-size="12">n/a</text>
<text x="840.25" y="452.00" text-anchor="end" font-size="12" transform="rotate(-35 840.25,452.00)">MT_TWO_TENANTS_SHARED_NODEPOOL</text>
  </g>
</svg>
