<svg xmlns="http://www.w3.org/2000/svg" width="980" height="560" viewBox="0 0 980 560">
  <rect width="100%" height="100%" fill="white"/>
  <text x="490.0" y="34" text-anchor="middle" font-family="Arial, sans-serif" font-size="22" font-weight="bold">C7 — Default Kubernetes Scheduler Baseline: P50 response time</text>
  <text x="490.0" y="58" text-anchor="middle" font-family="Arial, sans-serif" font-size="13">Unit: ms</text>
  <g font-family="Arial, sans-serif" fill="#222">
<line x1="86" y1="434" x2="948" y2="434" stroke="#222"/>
<line x1="86" y1="74" x2="86" y2="434" stroke="#222"/>
<line x1="81" y1="434.00" x2="948" y2="434.00" stroke="#ddd"/>
<text x="76" y="438.00" text-anchor="end" font-size="12">0.00</text>
<line x1="81" y1="362.00" x2="948" y2="362.00" stroke="#ddd"/>
<text x="76" y="366.00" text-anchor="end" font-size="12">12000.00</text>
<line x1="81" y1="290.00" x2="948" y2="290.00" stroke="#ddd"/>
<text x="76" y="294.00" text-anchor="end" font-size="12">24000.00</text>
<line x1="81" y1="218.00" x2="948" y2="218.00" stroke="#ddd"/>
<text x="76" y="222.00" text-anchor="end" font-size="12">36000.00</text>
<line x1="81" y1="146.00" x2="948" y2="146.00" stroke="#ddd"/>
<text x="76" y="150.00" text-anchor="end" font-size="12">48000.00</text>
<line x1="81" y1="74.00" x2="948" y2="74.00" stroke="#ddd"/>
<text x="76" y="78.00" text-anchor="end" font-size="12">60000.00</text>
<rect x="92.55" y="425.00" width="21.38" height="9.00" fill="#666"/>
<text x="103.24" y="418.00" text-anchor="middle" font-size="12">1500.00</text>
<text x="103.24" y="452.00" text-anchor="end" font-size="12" transform="rotate(-35 103.24,452.00)">DS_1T_2N_L0_UNIFORM_M1_W2</text>
<rect x="127.03" y="388.40" width="21.38" height="45.60" fill="#666"/>
<text x="137.72" y="381.40" text-anchor="middle" font-size="12">7600.00</text>
<text x="137.72" y="452.00" text-anchor="end" font-size="12" transform="rotate(-35 137.72,452.00)">DS_1T_2N_L1_UNIFORM_M1_W2</text>
<rect x="161.51" y="343.06" width="21.38" height="90.94" fill="#666"/>
<text x="172.20" y="336.06" text-anchor="middle" font-size="12">15157.44</text>
<text x="172.20" y="452.00" text-anchor="end" font-size="12" transform="rotate(-35 172.20,452.00)">DS_1T_3N_L1_UNIFORM_M1_W2</text>
<rect x="195.99" y="425.00" width="21.38" height="9.00" fill="#666"/>
<text x="206.68" y="418.00" text-anchor="middle" font-size="12">1500.00</text>
<text x="206.68" y="452.00" text-anchor="end" font-size="12" transform="rotate(-35 206.68,452.00)">DS_1T_4N_L0_UNIFORM_M1_W2</text>
<rect x="230.47" y="343.18" width="21.38" height="90.82" fill="#666"/>
<text x="241.16" y="336.18" text-anchor="middle" font-size="12">15136.81</text>
<text x="241.16" y="452.00" text-anchor="end" font-size="12" transform="rotate(-35 241.16,452.00)">DS_1T_4N_L1_UNIFORM_M1_W2</text>
<rect x="264.95" y="175.33" width="21.38" height="258.67" fill="#666"/>
<text x="275.64" y="168.33" text-anchor="middle" font-size="12">43111.37</text>
<text x="275.64" y="452.00" text-anchor="end" font-size="12" transform="rotate(-35 275.64,452.00)">DS_1T_4N_L2_UNIFORM_M1_W2</text>
<rect x="299.43" y="425.00" width="21.38" height="9.00" fill="#666"/>
<text x="310.12" y="418.00" text-anchor="middle" font-size="12">1500.00</text>
<text x="310.12" y="452.00" text-anchor="end" font-size="12" transform="rotate(-35 310.12,452.00)">DS_2T_2N_L0_DIFFERENTIATED_M1M1_W2</text>
<rect x="333.91" y="424.38" width="21.38" height="9.62" fill="#666"/>
<text x="344.60" y="417.38" text-anchor="middle" font-size="12">1603.18</text>
<text x="344.60" y="452.00" text-anchor="end" font-size="12" transform="rotate(-35 344.60,452.00)">DS_2T_2N_L0_UNIFORM_M1M1_W2</text>
<rect x="368.39" y="365.04" width="21.38" height="68.96" fill="#666"/>
<text x="379.08" y="358.04" text-anchor="middle" font-size="12">11493.01</text>
<text x="379.08" y="452.00" text-anchor="end" font-size="12" transform="rotate(-35 379.08,452.00)">DS_2T_2N_L1_DIFFERENTIATED_M1M1_W2</text>
<rect x="402.87" y="359.58" width="21.38" height="74.42" fill="#666"/>
<text x="413.56" y="352.58" text-anchor="middle" font-size="12">12403.29</text>
<text x="413.56" y="452.00" text-anchor="end" font-size="12" transform="rotate(-35 413.56,452.00)">DS_2T_2N_L1_UNIFORM_M1M1_W2</text>
<text x="448.04" y="426.00" text-anchor="middle" font-size="12">n/a</text>
<text x="448.04" y="452.00" text-anchor="end" font-size="12" transform="rotate(-35 448.04,452.00)">DS_2T_2N_L2_DIFFERENTIATED_M1M1_W2</text>
<rect x="471.83" y="342.58" width="21.38" height="91.42" fill="#666"/>
<text x="482.52" y="335.58" text-anchor="middle" font-size="12">15236.99</text>
<text x="482.52" y="452.00" text-anchor="end" font-size="12" transform="rotate(-35 482.52,452.00)">DS_2T_3N_L1_DIFFERENTIATED_M1M1_W2</text>
<rect x="506.31" y="339.03" width="21.38" height="94.97" fill="#666"/>
<text x="517.00" y="332.03" text-anchor="middle" font-size="12">15827.57</text>
<text x="517.00" y="452.00" text-anchor="end" font-size="12" transform="rotate(-35 517.00,452.00)">DS_2T_3N_L1_UNIFORM_M1M1_W2</text>
<rect x="540.79" y="425.00" width="21.38" height="9.00" fill="#666"/>
<text x="551.48" y="418.00" text-anchor="middle" font-size="12">1500.33</text>
<text x="551.48" y="452.00" text-anchor="end" font-size="12" transform="rotate(-35 551.48,452.00)">DS_2T_4N_L0_DIFFERENTIATED_M1M1_W2</text>
<rect x="575.27" y="425.00" width="21.38" height="9.00" fill="#666"/>
<text x="585.96" y="418.00" text-anchor="middle" font-size="12">1500.00</text>
<text x="585.96" y="452.00" text-anchor="end" font-size="12" transform="rotate(-35 585.96,452.00)">DS_2T_4N_L0_UNIFORM_M1M1_W2</text>
<rect x="609.75" y="425.20" width="21.38" height="8.80" fill="#666"/>
<text x="620.44" y="418.20" text-anchor="middle" font-size="12">1466.67</text>
<text x="620.44" y="452.00" text-anchor="end" font-size="12" transform="rotate(-35 620.44,452.00)">DS_2T_4N_L0_UNIFORM_M1M2_W2</text>
<rect x="644.23" y="342.74" width="21.38" height="91.26" fill="#666"/>
<text x="654.92" y="335.74" text-anchor="middle" font-size="12">15209.90</text>
<text x="654.92" y="452.00" text-anchor="end" font-size="12" transform="rotate(-35 654.92,452.00)">DS_2T_4N_L1_DIFFERENTIATED_M1M1_W2</text>
<rect x="678.71" y="341.69" width="21.38" height="92.31" fill="#666"/>
<text x="689.40" y="334.69" text-anchor="middle" font-size="12">15384.34</text>
<text x="689.40" y="452.00" text-anchor="end" font-size="12" transform="rotate(-35 689.40,452.00)">DS_2T_4N_L1_DIFFERENTIATED_M1M2_W2</text>
<rect x="713.19" y="341.23" width="21.38" height="92.77" fill="#666"/>
<text x="723.88" y="334.23" text-anchor="middle" font-size="12">15460.84</text>
<text x="723.88" y="452.00" text-anchor="end" font-size="12" transform="rotate(-35 723.88,452.00)">DS_2T_4N_L1_UNIFORM_M1M1_W2</text>
<rect x="747.67" y="342.93" width="21.38" height="91.07" fill="#666"/>
<text x="758.36" y="335.93" text-anchor="middle" font-size="12">15177.61</text>
<text x="758.36" y="452.00" text-anchor="end" font-size="12" transform="rotate(-35 758.36,452.00)">DS_2T_4N_L1_UNIFORM_M1M2_W2</text>
<text x="792.84" y="426.00" text-anchor="middle" font-size="12">n/a</text>
<text x="792.84" y="452.00" text-anchor="end" font-size="12" transform="rotate(-35 792.84,452.00)">DS_2T_4N_L2_DIFFERENTIATED_M1M1_W2</text>
<rect x="816.63" y="148.74" width="21.38" height="285.26" fill="#666"/>
<text x="827.32" y="141.74" text-anchor="middle" font-size="12">47542.58</text>
<text x="827.32" y="452.00" text-anchor="end" font-size="12" transform="rotate(-35 827.32,452.00)">DS_2T_4N_L2_UNIFORM_M1M1_W2</text>
<rect x="851.11" y="424.60" width="21.38" height="9.40" fill="#666"/>
<text x="861.80" y="417.60" text-anchor="middle" font-size="12">1566.67</text>
<text x="861.80" y="452.00" text-anchor="end" font-size="12" transform="rotate(-35 861.80,452.00)">DS_3T_4N_L0_UNIFORM_M1M1M1_W2</text>
<rect x="885.59" y="342.26" width="21.38" height="91.74" fill="#666"/>
<text x="896.28" y="335.26" text-anchor="middle" font-size="12">15289.77</text>
<text x="896.28" y="452.00" text-anchor="end" font-size="12" transform="rotate(-35 896.28,452.00)">DS_3T_4N_L1_DIFFERENTIATED_M1M1M1_W2</text>
<rect x="920.07" y="340.12" width="21.38" height="93.88" fill="#666"/>
<text x="930.76" y="333.12" text-anchor="middle" font-size="12">15646.33</text>
<text x="930.76" y="452.00" text-anchor="end" font-size="12" transform="rotate(-35 930.76,452.00)">DS_3T_4N_L1_UNIFORM_M1M1M1_W2</text>
  </g>
</svg>
